<mxfile host="Electron" modified="2023-08-22T00:42:01.066Z" agent="Mozilla/5.0 (Windows NT 10.0; Win64; x64) AppleWebKit/537.36 (KHTML, like Gecko) draw.io/21.6.8 Chrome/114.0.5735.289 Electron/25.5.0 Safari/537.36" etag="Ti6wMitp5_ycf1ekJ4Xs" version="21.6.8" type="device">
  <diagram name="Page-1" id="rtOkTL911FVZccZ7OyHE">
    <mxGraphModel dx="2074" dy="1196" grid="0" gridSize="13" guides="1" tooltips="1" connect="1" arrows="1" fold="1" page="1" pageScale="1" pageWidth="1800" pageHeight="1920" background="#ffffff" math="0" shadow="0">
      <root>
        <mxCell id="0" />
        <mxCell id="1" parent="0" />
        <mxCell id="9eGA8OLwAEAqsnnPTUQ7-1" value="" style="outlineConnect=0;dashed=0;verticalLabelPosition=bottom;verticalAlign=top;align=center;html=1;shape=mxgraph.aws3.sensor;fillColor=#5294CF;gradientColor=none;" vertex="1" parent="1">
          <mxGeometry x="172" y="359.5" width="76.5" height="90" as="geometry" />
        </mxCell>
        <mxCell id="9eGA8OLwAEAqsnnPTUQ7-2" value="" style="outlineConnect=0;dashed=0;verticalLabelPosition=bottom;verticalAlign=top;align=center;html=1;shape=mxgraph.aws3.aws_iot;fillColor=#5294CF;gradientColor=none;" vertex="1" parent="1">
          <mxGeometry x="353" y="368.5" width="67.5" height="81" as="geometry" />
        </mxCell>
        <mxCell id="9eGA8OLwAEAqsnnPTUQ7-3" value="" style="endArrow=classic;html=1;rounded=0;dashed=1;endSize=7;strokeColor=#A50040;fillColor=#d80073;strokeWidth=3;" edge="1" parent="1">
          <mxGeometry width="50" height="50" relative="1" as="geometry">
            <mxPoint x="248.5" y="404.00521246458925" as="sourcePoint" />
            <mxPoint x="349.5" y="404" as="targetPoint" />
          </mxGeometry>
        </mxCell>
        <mxCell id="9eGA8OLwAEAqsnnPTUQ7-4" value="" style="rounded=0;whiteSpace=wrap;html=1;fillColor=none;dashed=1;strokeColor=#FF3333;perimeterSpacing=12;strokeWidth=3;" vertex="1" parent="1">
          <mxGeometry x="161" y="336.5" width="305" height="153.5" as="geometry" />
        </mxCell>
        <mxCell id="9eGA8OLwAEAqsnnPTUQ7-5" value="&lt;font color=&quot;#000000&quot; style=&quot;font-size: 18px;&quot;&gt;AWS IoT Device Simulator&lt;/font&gt;" style="text;html=1;strokeColor=none;fillColor=none;align=center;verticalAlign=middle;whiteSpace=wrap;rounded=0;" vertex="1" parent="1">
          <mxGeometry x="198.5" y="504" width="222" height="30" as="geometry" />
        </mxCell>
        <mxCell id="9eGA8OLwAEAqsnnPTUQ7-8" value="" style="rounded=0;whiteSpace=wrap;html=1;fillColor=#098BE2;fontColor=#ffffff;strokeColor=#006EAF;strokeWidth=3;dashed=1;opacity=30;" vertex="1" parent="1">
          <mxGeometry x="664" y="214.5" width="417" height="397.5" as="geometry" />
        </mxCell>
        <mxCell id="9eGA8OLwAEAqsnnPTUQ7-9" value="" style="sketch=0;points=[[0,0,0],[0.25,0,0],[0.5,0,0],[0.75,0,0],[1,0,0],[0,1,0],[0.25,1,0],[0.5,1,0],[0.75,1,0],[1,1,0],[0,0.25,0],[0,0.5,0],[0,0.75,0],[1,0.25,0],[1,0.5,0],[1,0.75,0]];outlineConnect=0;fontColor=#232F3E;gradientColor=#945DF2;gradientDirection=north;fillColor=#5A30B5;strokeColor=#ffffff;dashed=0;verticalLabelPosition=bottom;verticalAlign=top;align=center;html=1;fontSize=12;fontStyle=0;aspect=fixed;shape=mxgraph.aws4.resourceIcon;resIcon=mxgraph.aws4.kinesis_data_firehose;" vertex="1" parent="1">
          <mxGeometry x="515" y="359.5" width="81.5" height="81.5" as="geometry" />
        </mxCell>
        <mxCell id="9eGA8OLwAEAqsnnPTUQ7-10" value="" style="endArrow=classic;html=1;rounded=0;fillColor=#d80073;strokeColor=#A50040;dashed=1;strokeWidth=3;" edge="1" parent="1">
          <mxGeometry width="50" height="50" relative="1" as="geometry">
            <mxPoint x="431" y="404" as="sourcePoint" />
            <mxPoint x="505" y="404.5" as="targetPoint" />
          </mxGeometry>
        </mxCell>
        <mxCell id="9eGA8OLwAEAqsnnPTUQ7-12" value="" style="endArrow=classic;html=1;rounded=0;strokeColor=#A50040;fillColor=#d80073;dashed=1;strokeWidth=3;" edge="1" parent="1">
          <mxGeometry width="50" height="50" relative="1" as="geometry">
            <mxPoint x="555.5" y="445" as="sourcePoint" />
            <mxPoint x="556" y="542" as="targetPoint" />
          </mxGeometry>
        </mxCell>
        <mxCell id="9eGA8OLwAEAqsnnPTUQ7-13" value="" style="sketch=0;points=[[0,0,0],[0.25,0,0],[0.5,0,0],[0.75,0,0],[1,0,0],[0,1,0],[0.25,1,0],[0.5,1,0],[0.75,1,0],[1,1,0],[0,0.25,0],[0,0.5,0],[0,0.75,0],[1,0.25,0],[1,0.5,0],[1,0.75,0]];outlineConnect=0;fontColor=#232F3E;gradientColor=#60A337;gradientDirection=north;fillColor=#277116;strokeColor=#ffffff;dashed=0;verticalLabelPosition=bottom;verticalAlign=top;align=center;html=1;fontSize=12;fontStyle=0;aspect=fixed;shape=mxgraph.aws4.resourceIcon;resIcon=mxgraph.aws4.s3;" vertex="1" parent="1">
          <mxGeometry x="516.25" y="557" width="79" height="79" as="geometry" />
        </mxCell>
        <mxCell id="9eGA8OLwAEAqsnnPTUQ7-17" value="" style="endArrow=classic;html=1;rounded=0;strokeColor=#A50040;fillColor=#d80073;dashed=1;strokeWidth=3;" edge="1" parent="1">
          <mxGeometry width="50" height="50" relative="1" as="geometry">
            <mxPoint x="799.5" y="337.5" as="sourcePoint" />
            <mxPoint x="886" y="338" as="targetPoint" />
          </mxGeometry>
        </mxCell>
        <mxCell id="9eGA8OLwAEAqsnnPTUQ7-18" value="&lt;font color=&quot;#0000cc&quot; style=&quot;font-size: 21px;&quot;&gt;Private Subnet&lt;/font&gt;" style="text;html=1;strokeColor=none;fillColor=none;align=center;verticalAlign=middle;whiteSpace=wrap;rounded=0;" vertex="1" parent="1">
          <mxGeometry x="763" y="221.5" width="162" height="45" as="geometry" />
        </mxCell>
        <mxCell id="9eGA8OLwAEAqsnnPTUQ7-19" value="" style="html=1;verticalLabelPosition=bottom;align=center;labelBackgroundColor=#ffffff;verticalAlign=top;strokeWidth=2;strokeColor=#0080F0;shadow=0;dashed=0;shape=mxgraph.ios7.icons.locked;" vertex="1" parent="1">
          <mxGeometry x="926" y="229" width="24" height="30" as="geometry" />
        </mxCell>
        <mxCell id="9eGA8OLwAEAqsnnPTUQ7-21" value="" style="sketch=0;points=[[0,0,0],[0.25,0,0],[0.5,0,0],[0.75,0,0],[1,0,0],[0,1,0],[0.25,1,0],[0.5,1,0],[0.75,1,0],[1,1,0],[0,0.25,0],[0,0.5,0],[0,0.75,0],[1,0.25,0],[1,0.5,0],[1,0.75,0]];outlineConnect=0;fontColor=#232F3E;gradientColor=#F54749;gradientDirection=north;fillColor=#C7131F;strokeColor=#ffffff;dashed=0;verticalLabelPosition=bottom;verticalAlign=top;align=center;html=1;fontSize=12;fontStyle=0;aspect=fixed;shape=mxgraph.aws4.resourceIcon;resIcon=mxgraph.aws4.secrets_manager;" vertex="1" parent="1">
          <mxGeometry x="709" y="106" width="78" height="78" as="geometry" />
        </mxCell>
        <mxCell id="9eGA8OLwAEAqsnnPTUQ7-22" value="" style="sketch=0;points=[[0,0,0],[0.25,0,0],[0.5,0,0],[0.75,0,0],[1,0,0],[0,1,0],[0.25,1,0],[0.5,1,0],[0.75,1,0],[1,1,0],[0,0.25,0],[0,0.5,0],[0,0.75,0],[1,0.25,0],[1,0.5,0],[1,0.75,0]];outlineConnect=0;fontColor=#232F3E;gradientColor=#F78E04;gradientDirection=north;fillColor=#D05C17;strokeColor=#ffffff;dashed=0;verticalLabelPosition=bottom;verticalAlign=top;align=center;html=1;fontSize=12;fontStyle=0;aspect=fixed;shape=mxgraph.aws4.resourceIcon;resIcon=mxgraph.aws4.lambda;" vertex="1" parent="1">
          <mxGeometry x="719" y="300" width="78" height="78" as="geometry" />
        </mxCell>
        <mxCell id="9eGA8OLwAEAqsnnPTUQ7-23" value="" style="endArrow=classic;html=1;rounded=0;strokeColor=#A50040;fillColor=#d80073;dashed=1;strokeWidth=3;" edge="1" parent="1">
          <mxGeometry width="50" height="50" relative="1" as="geometry">
            <mxPoint x="747.5" y="280" as="sourcePoint" />
            <mxPoint x="747.5" y="194" as="targetPoint" />
          </mxGeometry>
        </mxCell>
        <mxCell id="9eGA8OLwAEAqsnnPTUQ7-26" value="" style="sketch=0;points=[[0,0,0],[0.25,0,0],[0.5,0,0],[0.75,0,0],[1,0,0],[0,1,0],[0.25,1,0],[0.5,1,0],[0.75,1,0],[1,1,0],[0,0.25,0],[0,0.5,0],[0,0.75,0],[1,0.25,0],[1,0.5,0],[1,0.75,0]];outlineConnect=0;fontColor=#232F3E;gradientColor=#F78E04;gradientDirection=north;fillColor=#D05C17;strokeColor=#ffffff;dashed=0;verticalLabelPosition=bottom;verticalAlign=top;align=center;html=1;fontSize=12;fontStyle=0;aspect=fixed;shape=mxgraph.aws4.resourceIcon;resIcon=mxgraph.aws4.ec2;" vertex="1" parent="1">
          <mxGeometry x="899" y="300" width="78" height="78" as="geometry" />
        </mxCell>
        <mxCell id="9eGA8OLwAEAqsnnPTUQ7-27" value="" style="image;sketch=0;aspect=fixed;html=1;points=[];align=center;fontSize=12;image=img/lib/mscae/Azure_Database_for_MySQL_servers.svg;" vertex="1" parent="1">
          <mxGeometry x="942" y="268.08000000000004" width="52" height="68.42" as="geometry" />
        </mxCell>
        <mxCell id="9eGA8OLwAEAqsnnPTUQ7-28" value="&lt;font style=&quot;font-size: 18px;&quot; color=&quot;#000000&quot;&gt;EC2 Instance&lt;/font&gt;" style="text;html=1;strokeColor=none;fillColor=none;align=center;verticalAlign=middle;whiteSpace=wrap;rounded=0;strokeWidth=1;" vertex="1" parent="1">
          <mxGeometry x="897" y="389.5" width="80" height="30" as="geometry" />
        </mxCell>
        <mxCell id="9eGA8OLwAEAqsnnPTUQ7-29" value="&lt;font style=&quot;font-size: 16px;&quot; color=&quot;#000000&quot;&gt;My SQL DB&lt;/font&gt;" style="text;html=1;strokeColor=none;fillColor=none;align=center;verticalAlign=middle;whiteSpace=wrap;rounded=0;" vertex="1" parent="1">
          <mxGeometry x="999" y="264" width="60" height="30" as="geometry" />
        </mxCell>
        <mxCell id="9eGA8OLwAEAqsnnPTUQ7-32" value="&lt;font style=&quot;font-size: 17px;&quot; color=&quot;#000000&quot;&gt;S3 Backup Bucket &lt;br&gt;(DRP Strategy)&lt;/font&gt;" style="text;html=1;strokeColor=none;fillColor=none;align=center;verticalAlign=middle;whiteSpace=wrap;rounded=0;" vertex="1" parent="1">
          <mxGeometry x="489.37" y="640" width="132.75" height="79" as="geometry" />
        </mxCell>
        <mxCell id="9eGA8OLwAEAqsnnPTUQ7-36" value="&lt;font style=&quot;font-size: 15px;&quot; color=&quot;#000000&quot;&gt;AWS Secrets Manager&lt;/font&gt;" style="text;html=1;align=center;verticalAlign=middle;resizable=0;points=[];autosize=1;strokeColor=none;fillColor=none;" vertex="1" parent="1">
          <mxGeometry x="793" y="127" width="170" height="30" as="geometry" />
        </mxCell>
        <mxCell id="9eGA8OLwAEAqsnnPTUQ7-37" value="" style="edgeStyle=segmentEdgeStyle;endArrow=classic;html=1;curved=0;rounded=0;endSize=8;startSize=8;sourcePerimeterSpacing=0;targetPerimeterSpacing=0;fillColor=#d80073;strokeColor=#A50040;dashed=1;strokeWidth=3;" edge="1" parent="1">
          <mxGeometry width="100" relative="1" as="geometry">
            <mxPoint x="603" y="409" as="sourcePoint" />
            <mxPoint x="713" y="340" as="targetPoint" />
            <Array as="points">
              <mxPoint x="603" y="411" />
              <mxPoint x="674" y="411" />
              <mxPoint x="674" y="340" />
            </Array>
          </mxGeometry>
        </mxCell>
        <mxCell id="9eGA8OLwAEAqsnnPTUQ7-42" value="&lt;font style=&quot;font-size: 18px;&quot; color=&quot;#000000&quot;&gt;Lambda MySQL &lt;br&gt;Writer&lt;/font&gt;" style="text;html=1;align=center;verticalAlign=middle;resizable=0;points=[];autosize=1;strokeColor=none;fillColor=none;" vertex="1" parent="1">
          <mxGeometry x="684" y="377" width="148" height="55" as="geometry" />
        </mxCell>
        <mxCell id="9eGA8OLwAEAqsnnPTUQ7-44" value="&lt;font style=&quot;font-size: 15px;&quot; color=&quot;#000000&quot;&gt;Iot Sensors&lt;/font&gt;" style="text;html=1;strokeColor=none;fillColor=none;align=center;verticalAlign=middle;whiteSpace=wrap;rounded=0;" vertex="1" parent="1">
          <mxGeometry x="170" y="455" width="87" height="30" as="geometry" />
        </mxCell>
        <mxCell id="9eGA8OLwAEAqsnnPTUQ7-46" value="&lt;font style=&quot;font-size: 15px;&quot; color=&quot;#000000&quot;&gt;AWS IoT&lt;/font&gt;" style="text;html=1;strokeColor=none;fillColor=none;align=center;verticalAlign=middle;whiteSpace=wrap;rounded=0;" vertex="1" parent="1">
          <mxGeometry x="353" y="455" width="75.5" height="30" as="geometry" />
        </mxCell>
        <mxCell id="9eGA8OLwAEAqsnnPTUQ7-49" value="" style="sketch=0;outlineConnect=0;fontColor=#232F3E;gradientColor=none;fillColor=#4D27AA;strokeColor=none;dashed=0;verticalLabelPosition=bottom;verticalAlign=top;align=center;html=1;fontSize=12;fontStyle=0;aspect=fixed;pointerEvents=1;shape=mxgraph.aws4.endpoints;" vertex="1" parent="1">
          <mxGeometry x="707" y="186" width="54" height="54" as="geometry" />
        </mxCell>
        <mxCell id="9eGA8OLwAEAqsnnPTUQ7-52" value="&lt;font style=&quot;font-size: 15px;&quot; color=&quot;#000000&quot;&gt;VPC Endpoint&lt;/font&gt;" style="text;html=1;strokeColor=none;fillColor=none;align=center;verticalAlign=middle;whiteSpace=wrap;rounded=0;" vertex="1" parent="1">
          <mxGeometry x="644" y="182" width="60" height="30" as="geometry" />
        </mxCell>
      </root>
    </mxGraphModel>
  </diagram>
</mxfile>
